<svg width="29" height="26" viewBox="0 0 29 26" fill="none" xmlns="http://www.w3.org/2000/svg">
<path fill-rule="evenodd" clip-rule="evenodd" d="M9.95143 0C8.89286 0 8.01 0.565714 7.42929 1.33071C6.82608 2.15427 6.50649 3.15138 6.51857 4.17214C6.51857 5.24357 6.84643 6.25071 7.42929 7.01571C8.01 7.78071 8.89286 8.34429 9.95143 8.34429C11.0079 8.34429 11.8907 7.78071 12.4736 7.01571C13.0772 6.19157 13.3968 5.19364 13.3843 4.17214C13.3843 3.10286 13.0543 2.09357 12.4736 1.33071C11.8907 0.565714 11.0079 0 9.95143 0ZM18.81 0C17.7536 0 16.8707 0.565714 16.2879 1.33071C15.6846 2.15427 15.3651 3.15138 15.3771 4.17214C15.3771 5.24357 15.7071 6.25071 16.2879 7.01571C16.8707 7.78071 17.7536 8.34429 18.81 8.34429C19.8686 8.34429 20.7514 7.78071 21.3343 7.01571C21.9171 6.25071 22.245 5.24357 22.245 4.17214C22.245 3.10286 21.915 2.09357 21.3343 1.33071C20.7514 0.565714 19.8686 0 18.81 0ZM25.2086 7.875C23.0357 7.875 21.6557 9.97929 21.6557 12.0471C21.6557 14.115 23.0357 16.2214 25.2086 16.2214C27.3814 16.2214 28.7614 14.1171 28.7614 12.0471C28.7614 9.97714 27.3814 7.875 25.2086 7.875ZM3.55286 7.875C1.38 7.875 0 9.97714 0 12.0471C0 14.1171 1.38 16.2214 3.55286 16.2214C5.72571 16.2214 7.10571 14.1171 7.10571 12.0471C7.10571 9.97714 5.72357 7.87714 3.55286 7.87714M14.3807 11.8393C11.8821 11.8393 10.035 13.1786 8.85429 14.8393C7.69071 16.4721 7.10571 18.4993 7.10571 20.1471C7.10571 22.0757 8.265 23.415 9.67929 24.2186C11.0721 25.0071 12.8186 25.3543 14.3807 25.3543C15.945 25.3543 17.6871 25.0071 19.08 24.2186C20.4943 23.415 21.6557 22.0757 21.6557 20.1471C21.6557 18.4993 21.0707 16.4721 19.905 14.8371C18.7264 13.1786 16.8793 11.8371 14.3807 11.8371" fill="white"/>
</svg>
