<svg width="40" height="40" viewBox="0 0 40 40" fill="none" xmlns="http://www.w3.org/2000/svg">
<path d="M20 6.66666C21.425 6.66666 22.8867 6.70332 24.3034 6.76332L25.9767 6.84332L27.5784 6.93832L29.0784 7.03999L30.4484 7.14666C31.9353 7.25981 33.3347 7.89405 34.4 8.93766C35.4652 9.98127 36.1281 11.3673 36.2717 12.8517L36.3384 13.56L36.4634 15.0767C36.58 16.6483 36.6667 18.3617 36.6667 20C36.6667 21.6383 36.58 23.3517 36.4634 24.9233L36.3384 26.44L36.2717 27.1483C36.128 28.6329 35.4649 30.0192 34.3993 31.0628C33.3337 32.1065 31.934 32.7405 30.4467 32.8533L29.08 32.9583L27.58 33.0617L25.9767 33.1567L24.3034 33.2367C22.8698 33.2988 21.435 33.331 20 33.3333C18.5651 33.331 17.1303 33.2988 15.6967 33.2367L14.0234 33.1567L12.4217 33.0617L10.9217 32.9583L9.55171 32.8533C8.06473 32.7402 6.66537 32.1059 5.60011 31.0623C4.53485 30.0187 3.87203 28.6327 3.72837 27.1483L3.66171 26.44L3.53671 24.9233C3.40976 23.2852 3.34194 21.643 3.33337 20C3.33337 18.3617 3.42004 16.6483 3.53671 15.0767L3.66171 13.56L3.72837 12.8517C3.87197 11.3676 4.53456 9.98174 5.59948 8.93817C6.6644 7.89459 8.06336 7.26018 9.55004 7.14666L10.9184 7.03999L12.4184 6.93832L14.0217 6.84332L15.695 6.76332C17.1292 6.7012 18.5645 6.66897 20 6.66666ZM20 9.99999C18.625 9.99999 17.21 10.0367 15.8334 10.0933L14.2034 10.1717L12.6384 10.2633L11.1684 10.3633L9.82171 10.4683C9.1137 10.5179 8.44619 10.8169 7.93781 11.3121C7.42943 11.8074 7.1131 12.4669 7.04504 13.1733C6.85004 15.1883 6.66671 17.6967 6.66671 20C6.66671 22.3033 6.85004 24.8117 7.04504 26.8267C7.18671 28.28 8.34004 29.41 9.82171 29.5317L11.1684 29.635L12.6384 29.735L14.2034 29.8283L15.8334 29.9067C17.21 29.9633 18.625 30 20 30C21.375 30 22.79 29.9633 24.1667 29.9067L25.7967 29.8283L27.3617 29.7367L28.8317 29.6367L30.1784 29.5317C30.8864 29.4821 31.5539 29.1831 32.0623 28.6879C32.5707 28.1926 32.887 27.5331 32.955 26.8267C33.15 24.8117 33.3334 22.3033 33.3334 20C33.3334 17.6967 33.15 15.1883 32.955 13.1733C32.887 12.4669 32.5707 11.8074 32.0623 11.3121C31.5539 10.8169 30.8864 10.5179 30.1784 10.4683L28.8317 10.365L27.3617 10.265L25.7967 10.1717L24.1667 10.0933C22.7786 10.0337 21.3894 10.0026 20 9.99999ZM16.6667 15.9583C16.6666 15.7954 16.7063 15.635 16.7823 15.4909C16.8583 15.3469 16.9684 15.2235 17.103 15.1317C17.2375 15.0399 17.3924 14.9823 17.5543 14.964C17.7162 14.9457 17.8801 14.9672 18.0317 15.0267L18.1667 15.0933L25.1667 19.1333C25.3061 19.2138 25.424 19.3266 25.5105 19.4624C25.5969 19.5981 25.6493 19.7527 25.6632 19.9131C25.6771 20.0734 25.6521 20.2347 25.5903 20.3833C25.5286 20.5319 25.4318 20.6634 25.3084 20.7667L25.1667 20.8667L18.1667 24.9083C18.0256 24.99 17.8668 25.036 17.7039 25.0422C17.541 25.0485 17.379 25.0148 17.2321 24.9441C17.0852 24.8735 16.9578 24.768 16.861 24.6368C16.7642 24.5057 16.7009 24.3529 16.6767 24.1917L16.6667 24.0417V15.9583Z" fill="white"/>
</svg>
